# xmcd
#
# Track frame offsets:
#	150
#	25267
#	49535
#	72845
#	95162
#	117505
#	139340
#	165807
#	188947
#
# Disc length: 2791 seconds
#
# Revision: 4
# Processed by: cddbd v1.5PL3 Copyright (c) Steve Scherf et al.
# Submitted via: CDex 1.50Beta5
#
DISCID=790ae509
DTITLE=憂歌団 - ライブ・アット久保講堂1981 Disc 2
DYEAR=1994
DGENRE=Rock
TTITLE0=おそうじオバチャン
TTITLE1=パチンコ
TTITLE2=16t
TTITLE3=王様
TTITLE4=あたしの彼氏
TTITLE5=夢
TTITLE6=Good Night Sweet Heart
TTITLE7=ヘビー・スモーカー
TTITLE8=スティーリン
EXTD=
EXTT0=
EXTT1=
EXTT2=
EXTT3=
EXTT4=
EXTT5=
EXTT6=
EXTT7=
EXTT8=
PLAYORDER=
